<?xml version="1.0" encoding="UTF-8"?>
<svg xmlns="http://www.w3.org/2000/svg" xmlns:xlink="http://www.w3.org/1999/xlink" viewBox="0 0 48 48" width="48px" height="48px">
<g id="surface234902530">
<path style=" stroke:none;fill-rule:nonzero;fill:rgb(51.372552%,26.274511%,78.431374%);fill-opacity:1;" d="M 41.753906 27.957031 L 33.300781 37.65625 C 33.109375 37.875 32.835938 38 32.546875 38 L 26.371094 38 C 26.132812 38 25.898438 38.085938 25.71875 38.242188 L 19.28125 43.761719 C 19.101562 43.914062 18.867188 44 18.628906 44 L 17 44 C 16.449219 44 16 43.550781 16 43 L 16 39 C 16 38.449219 15.550781 38 15 38 L 7 38 C 6.449219 38 6 37.550781 6 37 L 6 15.941406 C 6 15.785156 6.035156 15.632812 6.105469 15.496094 L 10.085938 7.550781 C 10.257812 7.214844 10.601562 7 10.980469 7 L 41 7 C 41.550781 7 42 7.449219 42 8 L 42 27.300781 C 42 27.542969 41.914062 27.777344 41.753906 27.957031 Z M 41.753906 27.957031 "/>
<path style=" stroke:none;fill-rule:nonzero;fill:rgb(98.039216%,98.039216%,98.039216%);fill-opacity:1;" d="M 39 26.367188 C 37.332031 28.246094 35.667969 30.121094 34 32 C 31.667969 32 29.332031 32 27 32 C 24.667969 34 22.332031 36 20 38 C 20 36 20 34 20 32 C 17.332031 31.992188 14.667969 31.984375 12 31.976562 C 12 24.648438 12 17.324219 12 10 C 21 10 30 10 39 10 C 39 15.457031 39 20.910156 39 26.367188 Z M 39 26.367188 "/>
<path style=" stroke:none;fill-rule:nonzero;fill:rgb(51.372552%,26.274511%,78.431374%);fill-opacity:1;" d="M 21 16 L 24 16 L 24 26 L 21 26 Z M 21 16 "/>
<path style=" stroke:none;fill-rule:nonzero;fill:rgb(51.372552%,26.274511%,78.431374%);fill-opacity:1;" d="M 30 16 L 33 16 L 33 26 L 30 26 Z M 30 16 "/>
</g>
</svg>
